<svg width="1010" height="676" viewBox="0 0 1010 676" fill="none" xmlns="http://www.w3.org/2000/svg">
<path opacity="0.5" d="M586.514 111.402C521.794 109.102 460.154 88.212 401.334 65.402C342.514 42.592 284.174 17.212 221.004 5.10197C180.374 -2.68803 133.904 -3.78803 101.174 17.992C69.6641 38.992 59.4841 75.142 54.0141 108.722C49.8941 133.982 47.4741 160.562 58.7541 184.212C66.5941 200.632 80.4941 214.432 90.1141 230.162C123.584 284.882 99.9241 352.362 63.6641 405.792C46.6641 430.862 26.9141 454.792 13.7841 481.452C0.654109 508.112 -5.41589 538.702 6.07411 565.922C17.4541 592.922 44.5841 613.162 73.9741 627.412C133.664 656.352 203.974 664.642 272.584 669.332C424.414 679.722 577.044 675.222 729.274 670.722C785.614 669.052 842.194 667.362 897.614 658.652C928.394 653.812 960.164 646.132 982.514 627.602C1010.87 604.072 1017.9 564.222 998.894 534.722C967.014 485.232 878.894 472.942 856.584 419.822C844.324 390.592 856.914 358.022 874.744 330.912C912.984 272.752 977.074 221.722 980.444 155.232C982.764 109.572 951.954 63.842 904.314 42.232C854.384 19.582 785.134 22.432 748.314 59.922C710.334 98.482 643.664 113.332 586.514 111.402Z" fill="url(#paint0_linear_293_292)"/>
<defs>
<linearGradient id="paint0_linear_293_292" x1="952" y1="74.5" x2="33.5" y2="597.5" gradientUnits="userSpaceOnUse">
<stop stop-color="#E2B43B"/>
<stop offset="0.317111" stop-color="#E2B43B" stop-opacity="0.72"/>
<stop offset="1" stop-color="#3BE292" stop-opacity="0.42"/>
</linearGradient>
</defs>
</svg>
