<svg width="1461" height="188" viewBox="0 0 1461 188" fill="none" xmlns="http://www.w3.org/2000/svg">
<path d="M-82 188L-45.2466 172.028C-8.4932 156.057 64.7993 124.113 138.735 113.432C211.92 103.15 285.534 113.133 358.398 97.4604C432.333 81.1892 506.269 39.2634 579.133 49.5452C652.747 60.2263 725.932 124.113 799.867 118.823C873.16 113.133 946.667 39.2634 1020.6 12.3111C1093.57 -14.6411 1167.4 7.31999 1240.27 33.5735C1314.09 60.2263 1387.06 92.1697 1424.57 108.141L1461 124.113V188H1424.25C1387.49 188 1314.2 188 1240.27 188C1167.08 188 1093.47 188 1020.6 188C946.667 188 872.731 188 799.867 188C726.253 188 653.068 188 579.133 188C505.84 188 432.333 188 358.398 188C285.427 188 211.599 188 138.735 188C64.9064 188 -8.06459 188 -45.5681 188H-82Z" fill="#0099FF" fill-opacity="0.59"/>
</svg>
